<?xml version="1.0" encoding="utf-8"?>
<!-- Generator: Adobe Illustrator 16.0.4, SVG Export Plug-In . SVG Version: 6.00 Build 0)  -->
<!DOCTYPE svg PUBLIC "-//W3C//DTD SVG 1.1//EN" "http://www.w3.org/Graphics/SVG/1.1/DTD/svg11.dtd">
<svg version="1.1" xmlns="http://www.w3.org/2000/svg" xmlns:xlink="http://www.w3.org/1999/xlink" x="0px" y="0px" width="560px"
	 height="404px" viewBox="0 0 560 404" enable-background="new 0 0 560 404" xml:space="preserve">
<g id="Layer_3" display="none">
	<rect x="-160" y="-39" display="inline" stroke="#FFFFFF" stroke-miterlimit="10" width="1000" height="500"/>
</g>
<g id="Layer_1">
	<g id="Layer_2">
	</g>
	<g id="zezm8S.tif">
		<g>
			<path fill-rule="evenodd" clip-rule="evenodd" fill="#FFFFFF" d="M206,5c0,8.998-0.098,17.998,0.058,26.994
				c0.051,2.943-0.585,4.795-3.447,6.334c-13.603,7.318-26.897,15.187-39.746,23.768c-14.104,9.419-27.417,19.9-39.321,31.972
				c-21.521,21.823-36.172,47.673-41.135,78.022c-2.777,16.982-3.496,34.485,2.635,51.194c3.205,8.739,8.609,15.858,18.697,17.435
				c5.896,0.921,11.465-1.244,17.055-2.592c8.857-2.135,17.421-5.344,26.378-7.184c22.247-4.57,42.522-0.127,60.62,13.447
				c15.346,11.511,26.194,26.338,30.514,45.29c5.027,22.059,2.43,43.269-9.352,62.724c-15.232,25.154-37.991,40.087-66.707,45.167
				c-17.764,3.144-35.611,2.188-53.116-3.335c-25.546-8.062-45.651-23.566-63.116-43.453
				c-13.395-15.253-23.236-32.327-29.691-51.399c-4.096-12.102-6.249-24.612-7.452-37.398c-2.929-31.122,1.673-61.2,11.925-90.445
				c9.758-27.833,24.955-52.592,43.489-75.554c15.939-19.748,34.997-35.863,55.653-50.096c16.99-11.707,35.418-21.08,54.572-28.871
				C184.631,12.904,194.834,9,205,5C205.334,5,205.666,5,206,5z"/>
			<path fill-rule="evenodd" clip-rule="evenodd" fill="#FFFFFF" d="M555,317c-2.321,8.225-3.207,16.858-7.037,24.651
				c-3.887,7.91-8.048,15.665-14.222,22.076c-8.534,8.861-17.158,17.548-28.278,23.404c-12.04,6.34-24.664,10.148-38.149,12.022
				c-12.21,1.697-24.204,0.725-36.095-1.328c-10.651-1.84-20.795-5.807-30.348-10.943c-14.154-7.611-26.782-17.343-37.589-29.206
				c-15.004-16.472-26.512-34.95-33.578-56.396c-7.702-23.377-9.121-47.31-7.471-71.329c2.526-36.785,13.769-71.062,32.905-102.784
				c12.629-20.934,27.82-39.671,45.598-56.321C415.447,57.066,431.93,45.6,449.52,35.824c20.366-11.317,41.784-20.255,64.041-27.197
				c3.467-1.081,4.539-0.199,4.479,3.28c-0.124,7.162-0.109,14.329,0.002,21.491c0.038,2.456-0.801,3.9-3.003,5.143
				c-23.15,13.069-45.463,27.438-66.124,44.207c-17.528,14.228-32.922,30.391-42.785,51.051
				c-7.486,15.682-11.771,32.195-13.29,49.596c-1.138,13.031-1.901,25.887,2.997,38.277c6.6,16.696,17.48,23.02,34.412,17.715
				c10.441-3.273,20.764-7.029,31.604-8.799c25.77-4.205,48.613,1.794,68.006,19.744c12.026,11.131,20.146,24.441,23.711,40.543
				c0.523,2.368-0.628,5.094,1.431,7.125C555,304.333,555,310.667,555,317z"/>
		</g>
	</g>
</g>
</svg>
